<?xml version="1.0" encoding="utf-8"?>
<svg width="129px" height="30px" viewBox="0 0 129 30" version="1.1" xmlns="http://www.w3.org/2000/svg" xmlns:xlink="http://www.w3.org/1999/xlink">
<style type="text/css">
	.st0{fill:#00CC44;}
	.st1{fill:#37383C;}
</style>
<g>
	<path class="st0" d="M26,23.6c0-0.4-0.1-0.8-0.3-1.1c-0.1-0.1-0.2-0.3-0.3-0.4l-5.1-5.1c-0.3-0.4-0.8-0.6-1.4-0.6c0,0-0.2,0-0.2,0
		c-0.1,0-0.2,0-0.2,0c0,0,0,0,0,0c-0.8,0.1-1.3,0.6-1.3,0.6c-0.7,1-1.8,1.6-3.1,1.6c-2.1,0-3.7-1.7-3.7-3.7c0-2.1,1.7-3.8,3.7-3.8
		c0.8,0,1.6,0.3,2.2,0.8c0,0,0.6,0.7,1.9,0.7c0.4,0,1-0.6,1.8-1.4l3.8-3.9c0.7-0.7,1.4-1.4,1.4-1.8c0-0.6-0.6-1.2-1.2-1.7
		C21.4,1.5,17.9,0,14.1,0C8.1,0,3,3.6,0.6,8.7C0.3,9.3,0,9.9,0,10.1c0,1,0.8,1.9,1.9,1.9c1.2,0,1.8-0.8,1.8-0.8
		c1.5-4.3,5.6-7.5,10.5-7.5c2.3,0,4.5,0.7,6.2,1.9l-2.7,2.7c-1-0.6-2.2-0.9-3.5-0.9c-4.1,0-7.4,3.4-7.4,7.5c0,4.1,3.3,7.5,7.4,7.5
		c1.7,0,3.2-0.6,4.4-1.5l2.7,2.7c-1.9,1.6-4.4,2.6-7.1,2.6c-4.8,0-8.9-3.1-10.5-7.5c0,0-0.6-0.8-1.8-0.8c-1,0-1.9,0.8-1.9,1.9
		c0,0.6,0.3,1.1,0.6,1.4C3,26.4,8.1,30,14.1,30c4.2,0,8-1.8,10.7-4.6C24.9,25.3,26,24.3,26,23.6z"/>
	<g>
		<path class="st1" d="M48.1,8.5c-0.7,0.2-1.3,0.5-2,1c-0.6,0.5-1.1,1.2-1.5,2.1C44.2,12.5,44,13.6,44,15c0,1.4,0.2,2.5,0.6,3.4
			c0.4,0.9,0.9,1.6,1.5,2.1c0.6,0.5,1.3,0.8,2,1c0.7,0.2,1.4,0.3,2.2,0.3c1.3,0,2.7-0.3,4.3-0.9v-3c-1.3,0.6-2.7,1-4.1,1
			c-0.9,0-1.7-0.3-2.2-0.8c-0.5-0.6-0.8-1.6-0.8-3c0-1.5,0.3-2.5,0.8-3c0.5-0.6,1.3-0.8,2.2-0.8c1.4,0,2.7,0.3,4.1,1v-3
			c-1.6-0.6-3-0.9-4.3-0.9C49.5,8.2,48.7,8.3,48.1,8.5z M57.5,21.7H61V8.3h-3.4V21.7z M64.8,21.7h9.3v-2.8h-5.9v-2.5h5.1v-2.8h-5.1
			v-2.5h5.9V8.3h-9.3V21.7z M84.8,14.4c-0.5-0.3-1-0.5-1.5-0.7c-0.5-0.2-1-0.3-1.5-0.4c-0.5-0.1-0.8-0.2-1.1-0.4
			c-0.3-0.2-0.4-0.4-0.4-0.6c0-0.4,0.2-0.7,0.6-0.9c0.4-0.2,0.9-0.3,1.4-0.3c1,0,2,0.3,3.1,1v-3c-1.1-0.6-2.3-0.9-3.6-0.9
			c-1.4,0-2.6,0.3-3.5,1c-0.9,0.7-1.4,1.7-1.4,3.1c0,0.7,0.1,1.3,0.3,1.8c0.2,0.5,0.5,0.9,0.9,1.2c0.4,0.3,0.8,0.5,1.2,0.7
			c0.4,0.2,0.9,0.3,1.3,0.4l1.2,0.3c0.4,0.1,0.7,0.2,0.9,0.4c0.2,0.2,0.3,0.4,0.3,0.6c0,0.4-0.2,0.6-0.6,0.8
			c-0.4,0.2-0.8,0.3-1.3,0.3h0c-1.5,0-2.9-0.5-4.1-1.5v3.2c1.3,0.9,2.8,1.3,4.6,1.3c1.3,0,2.5-0.4,3.4-1.1c0.9-0.7,1.4-1.7,1.4-2.8
			c0-0.8-0.1-1.6-0.4-2.2C85.6,15.2,85.2,14.7,84.8,14.4z M88.1,11.3h3.8v10.4h3.4V11.3h3.9V8.3H88.1V11.3z M111.8,15.3
			c0.5-0.7,0.7-1.6,0.7-2.6c0-1.4-0.5-2.4-1.5-3.2c-1-0.8-2.3-1.1-3.9-1.1h-5.3v13.3h3.4v-4.4h1.4l2.5,4.4h3.8l-3.2-5
			C110.6,16.4,111.3,16,111.8,15.3z M108.5,14.1c-0.3,0.3-0.7,0.5-1.2,0.5h-2v-3.5h2c0.5,0,0.9,0.2,1.2,0.5
			c0.3,0.3,0.5,0.7,0.5,1.3C109,13.4,108.9,13.8,108.5,14.1z M123.7,8.3h-3.2l-5.3,13.3h3.7l1-3.2h4.4l1,3.2h3.7L123.7,8.3z
			 M120.7,15.9l1.4-4.1l1.3,4.1H120.7z"/>
	</g>
</g>
</svg>
